<svg id="Слой_1" data-name="Слой 1" xmlns="http://www.w3.org/2000/svg" viewBox="0 0 514.33 510.65"><defs><style>.cls-1{fill:#e6e6e6;}.cls-2{fill:#666;}.cls-3{fill:#fbb03b;}.cls-4{fill:#a67c52;}.cls-5{fill:none;stroke:#fff;stroke-linecap:round;stroke-linejoin:round;stroke-width:3px;}.cls-6{fill:#998675;}.cls-7{fill:#534741;}.cls-8{fill:#ccc;}</style></defs><rect class="cls-1" x="2.5" y="3.21" width="461" height="461" rx="108.87"/><path class="cls-2" d="M1083.13,771.3c-69-.09-138.09.87-207.14,1.58l-25.89.28-6.47.07c-2.16,0-4.31.06-6.53,0-1.1,0-2.2,0-3.3-.08l-3.3-.22c-2.2-.11-4.39-.45-6.58-.69a109.27,109.27,0,0,1-48.78-19.33,114.42,114.42,0,0,1-10.35-8.28,110.48,110.48,0,0,1-9.25-9.49,116,116,0,0,1-8.09-10.51,114.55,114.55,0,0,1-6.73-11.41,110.58,110.58,0,0,1-12.22-51.08l.83-103.57.44-51.78L730,455l0-25.89v-6.47c0-2.16,0-4.32.08-6.5,0-1.08.05-2.17.11-3.26l.24-3.25c.11-2.18.47-4.33.72-6.49a110.13,110.13,0,0,1,19.19-48.05,107.12,107.12,0,0,1,17.48-19.35,116.42,116.42,0,0,1,10.31-8.05,113.74,113.74,0,0,1,11.22-6.74,110.31,110.31,0,0,1,50.44-12.58q103.56-.87,207.14-1.18l25.89-.08,6.47,0c2.15,0,4.31,0,6.55.05,1.1,0,2.21,0,3.32.1l3.31.24c2.22.11,4.41.46,6.61.72a111.33,111.33,0,0,1,49,19.51,116.81,116.81,0,0,1,10.39,8.32,111.42,111.42,0,0,1,9.29,9.53,108,108,0,0,1,14.92,22,111.75,111.75,0,0,1,12.45,51.32l-.13,51.78-.18,51.79-.14,25.89-.22,25.89L1194,626l-.3,25.89-.07,6.47c0,2.16,0,4.31-.15,6.51,0,1.09-.06,2.19-.13,3.28l-.29,3.27c-.14,2.18-.51,4.34-.79,6.5a109.66,109.66,0,0,1-19.81,47.88,112.29,112.29,0,0,1-8.27,10.07,115.79,115.79,0,0,1-9.4,9,105.45,105.45,0,0,1-21.58,14.42A109.43,109.43,0,0,1,1083.13,771.3Zm0-.6a108.1,108.1,0,0,0,49.65-12.19,110,110,0,0,0,11-6.62A112.49,112.49,0,0,0,1154,744a109.81,109.81,0,0,0,9.16-9,111.92,111.92,0,0,0,7.94-10.1,107.06,107.06,0,0,0,18.43-47.3c.23-2.12.55-4.22.64-6.35l.21-3.19c.05-1.06,0-2.13.06-3.19,0-2.12,0-4.28,0-6.44l-.07-6.47L1190,626l-.56-51.79-.22-25.89-.14-25.89-.18-51.79-.13-51.78a105.9,105.9,0,0,0-11.73-48.38,110.88,110.88,0,0,0-6.39-10.82,109.73,109.73,0,0,0-7.67-9.95,114.42,114.42,0,0,0-8.73-9,110.56,110.56,0,0,0-9.77-7.9,103.46,103.46,0,0,0-22-12.13,104.8,104.8,0,0,0-24.22-6.59c-2.09-.24-4.16-.6-6.26-.71l-3.14-.25c-1.05-.06-2.1-.07-3.15-.11s-2.08-.07-3.16-.07h-3.24l-6.47,0-25.89-.08q-103.57-.26-207.14-1.18a107.48,107.48,0,0,0-49.26,11.6,112.72,112.72,0,0,0-11.05,6.43,109.55,109.55,0,0,0-19.41,16.64,113.1,113.1,0,0,0-8.07,9.95,108,108,0,0,0-6.88,10.82c-1,1.89-2,3.78-2.93,5.71s-1.82,3.87-2.56,5.88A106.39,106.39,0,0,0,733,403.39c-.25,2.13-.6,4.24-.71,6.38l-.25,3.2c-.07,1.07-.06,2.14-.1,3.21-.07,2.13-.06,4.29-.05,6.45v6.47L732,455l.26,51.79.44,51.78.83,103.57a107.16,107.16,0,0,0,12,48.63,108.57,108.57,0,0,0,6.43,10.85,111.14,111.14,0,0,0,7.71,10,119.31,119.31,0,0,0,8.78,9.07,111.69,111.69,0,0,0,9.82,7.94,107.57,107.57,0,0,0,46.39,18.9c2.09.26,4.18.62,6.29.75l3.16.26c1.05.07,2.11.08,3.16.12,2.1.09,4.25.1,6.42.13l6.47.07,25.89.28C945,769.83,1014.09,770.79,1083.13,770.7Z" transform="translate(-728.5 -306.79)"/><path class="cls-3" d="M1192,474H731V418.87A108.87,108.87,0,0,1,839.87,310h243.26A108.87,108.87,0,0,1,1192,418.87Z" transform="translate(-728.5 -306.79)"/><path class="cls-4" d="M1192.21,474.21l-56.94.86-57.35.65-57.6.48-57.79.29-28.95,0-29-.11-58-.57-57.87-.66L759.86,475,731,474.9h-.9V474L730,430.53l-.06-10.87c0-1.81.06-3.65.09-5.48s.23-3.65.33-5.48a109.35,109.35,0,0,1,4-21.58,110.31,110.31,0,0,1,96.57-79.31l2.77-.23c.92-.08,1.85-.08,2.78-.12,1.85-.06,3.72-.13,5.51-.13l10.87-.06,21.73-.09,87-.36c29,0,58-.07,87,.08l21.73.07,10.87,0c1.79,0,3.66.07,5.52.13.93,0,1.86,0,2.79.12l2.78.23a110.27,110.27,0,0,1,100.8,101.18c.64,7.3.21,14.68.14,22Zm-.42-.42-.87-43.43c-.19-7.14-.06-14.29-.83-21.42a107.08,107.08,0,0,0-57.88-84.36,105.57,105.57,0,0,0-40.53-11.31l-2.64-.18c-.88-.06-1.77,0-2.65-.07-1.76,0-3.51-.08-5.34,0l-10.87,0-21.73.07c-29,.15-58,.11-87,.08l-87-.36-21.73-.09L842,312.67c-1.83,0-3.59,0-5.35,0-.89,0-1.77,0-2.65.07l-2.65.18a105.8,105.8,0,0,0-40.65,11.35,107.67,107.67,0,0,0-33.26,26.28,106.27,106.27,0,0,0-20.49,37.3,107.42,107.42,0,0,0-4.29,21c-.13,1.79-.34,3.57-.39,5.36s-.13,3.58-.15,5.39L732,430.53,731.9,474l-.9-.9,28.77-.08,28.75-.19,57.38-.66,57.26-.57,28.64-.11,28.67,0,57.46.29,57.65.48,57.9.65Z" transform="translate(-728.5 -306.79)"/><line class="cls-1" x1="2.5" y1="245.1" x2="463.5" y2="245.1"/><path class="cls-2" d="M731,551.69c19.21-.71,38.42-1.12,57.63-1.35l14.4-.15,14.41-.07q14.4-.07,28.81.11l28.81.55,14.41.29,14.41.18c19.2.15,38.41-.1,57.62-.45s38.42-.67,57.63-.79,38.41-.3,57.62-.25c38.42.2,76.83.66,115.25,1.93v.4c-38.42,1.27-76.83,1.74-115.25,1.94-19.21.05-38.42-.12-57.62-.26s-38.42-.4-57.63-.78-38.42-.6-57.62-.45l-14.41.18-14.41.29-28.81.55q-14.4.18-28.81.1L803,553.59l-14.4-.15c-19.21-.22-38.42-.63-57.63-1.35Z" transform="translate(-728.5 -306.79)"/><line class="cls-1" x1="2.5" y1="320.67" x2="463.5" y2="320.67"/><path class="cls-2" d="M731,627.27c19.21-.72,38.42-1.13,57.63-1.35l14.4-.15,14.41-.07q14.4-.09,28.81.1l28.81.55,14.41.3,14.41.17c19.2.15,38.41-.1,57.62-.45s38.42-.67,57.63-.78,38.41-.31,57.62-.26c38.42.21,76.83.67,115.25,1.94v.4c-38.42,1.27-76.83,1.73-115.25,1.93-19.21.06-38.42-.11-57.62-.25s-38.42-.4-57.63-.79-38.42-.6-57.62-.44l-14.41.17-14.41.29-28.81.55q-14.4.18-28.81.11L803,629.17l-14.4-.15c-19.21-.22-38.42-.63-57.63-1.35Z" transform="translate(-728.5 -306.79)"/><line class="cls-1" x1="11.5" y1="395.99" x2="454.5" y2="395.99"/><path class="cls-2" d="M740,702.59c18.46-.72,36.92-1.13,55.38-1.35l13.84-.15,13.84-.08q13.85-.07,27.69.11l27.69.55,13.84.29,13.85.18c18.45.15,36.91-.1,55.37-.45s36.92-.67,55.38-.79,36.91-.3,55.37-.25c36.92.17,73.83.67,110.75,1.94v.4c-36.92,1.26-73.83,1.76-110.75,1.93-18.46.05-36.92-.12-55.37-.25s-36.92-.41-55.38-.79-36.92-.6-55.37-.45l-13.85.18-13.84.29-27.69.55q-13.85.18-27.69.11l-13.84-.08-13.84-.14c-18.46-.23-36.92-.64-55.38-1.35Z" transform="translate(-728.5 -306.79)"/><circle class="cls-2" cx="23" cy="195.71" r="5.5"/><circle class="cls-2" cx="49" cy="195.71" r="5.5"/><circle class="cls-2" cx="74" cy="195.71" r="5.5"/><circle class="cls-2" cx="101" cy="195.71" r="5.5"/><circle class="cls-2" cx="127" cy="195.71" r="5.5"/><circle class="cls-2" cx="152" cy="195.71" r="5.5"/><circle class="cls-2" cx="177" cy="195.71" r="5.5"/><circle class="cls-2" cx="203" cy="195.71" r="5.5"/><circle class="cls-2" cx="228" cy="195.71" r="5.5"/><circle class="cls-2" cx="255" cy="195.71" r="5.5"/><circle class="cls-2" cx="281" cy="195.71" r="5.5"/><circle class="cls-2" cx="306" cy="195.71" r="5.5"/><circle class="cls-2" cx="335" cy="195.71" r="5.5"/><circle class="cls-2" cx="361" cy="195.71" r="5.5"/><circle class="cls-2" cx="386" cy="195.71" r="5.5"/><circle class="cls-2" cx="413" cy="195.71" r="5.5"/><circle class="cls-2" cx="439" cy="195.71" r="5.5"/><path class="cls-5" d="M797.29,364s4.68-2.76,4.71-2.72c.19.34-5.65,13.06-5.5,13.33.29.51,18.35-11.22,18.62-10.75.43.74-22.89,22.84-22.52,23.47.51.89,41.44-25.08,41.94-24.22.64,1.11-34.65,29-34.06,30,.8,1.4,49.64-30.66,50.5-29.16s-56.09,41-55.12,42.69,76.51-46.77,77.64-44.83c1,1.7-77.38,52.27-76.39,54,1.12,1.94,93.38-57.14,94.78-54.72,1.75,3-99,64.16-97.52,66.8,1.76,3.05,113.53-68.62,114.86-66.32,1.52,2.64-118.35,75.79-116.91,78.29s131.74-80.93,133.85-77.28c1.53,2.65-110.64,71.18-109.24,73.6,1.73,3,122.05-74.51,123.8-71.47,1.85,3.21-114.58,72.19-112.61,75.61s127.25-78,129.2-74.59-112.31,71-110.67,73.81,131.46-79.68,133.1-76.84-114.2,72-112.34,75.27c2,3.48,127.94-78.67,130-75.07,1.93,3.36-117.24,73.85-115.25,77.29,2.2,3.81,133.09-80.44,134.65-77.74,1.7,3-112.83,71-110.93,74.25,1.59,2.75,126.22-77.35,128.15-74,1.71,3-114.76,72.87-113.28,75.44,2.16,3.73,124.49-75.9,126.23-72.88,1.56,2.7-113.83,72.14-111.86,75.55,1.71,3,135.79-83.57,138-79.69,2,3.47-118.94,74.76-117,78.08,2.15,3.72,127.11-77.23,128.77-74.35,1.76,3.05-112.37,71.88-110.93,74.37,2.24,3.87,126.27-76.62,127.88-73.83,1.38,2.38-112.61,71-110.89,74,1.82,3.17,128.8-79.18,130.89-75.57,1.64,2.86-116.46,74-114.75,76.95,1.81,3.15,121.9-74.94,123.87-71.52,1.42,2.46-104.8,67.65-103.52,69.86s101.92-62.48,103.49-59.75c1.48,2.56-83.88,56.23-82.52,58.59s80.85-49.73,82.18-47.44c1.12,1.94-70.86,48.16-69.61,50.32.92,1.6,68.43-41.24,69.18-39.94s-52.27,38.45-51.32,40.08c.52.91,52.13-31.66,52.81-30.49.45.78-27,25.29-26.54,26.08.34.6,22.92-14,23.24-13.42s-9.32,15.81-9.13,16.13,6.59-4,6.69-3.86" transform="translate(-728.5 -306.79)"/><rect class="cls-6" x="1011.77" y="619.14" width="317.44" height="29.49" transform="translate(-535.91 1230.17) rotate(-71.16)"/><path d="M1133.28,789,1105,780.12l-.78-.24.26-.81q12.23-37.76,24.81-75.39c8.43-25.07,16.91-50.13,25.82-75s17.86-49.81,26.45-74.83,17-50.12,25.18-75.26l.34-1,1.05.35,28,9.17,1.37.45-.46,1.41-12.56,37.81-12.73,37.8c-8.49,25.22-17,50.45-25.79,75.5l-6.54,18.81-6.59,18.72L1159.72,715l-13.21,37.17Zm-.18-.36,12.41-38.2,12.41-37.93,12.47-37.7,6.22-18.83,6.28-18.75c8.34-25,16.86-49.86,25.46-74.72l12.9-37.31L1234.32,488l.91,1.86-27.79-9.87,1.39-.68q-13.27,37.39-26.07,75c-8.49,25-16.55,50.26-24.81,75.39s-16.78,50.18-25.43,75.18-17.51,49.92-26.45,74.83l-.51-1.06Z" transform="translate(-728.5 -306.79)"/><path class="cls-7" d="M1235.1,490.2l-27.91-9.52,5.35-15.68a7.89,7.89,0,0,1,10-4.92l13,4.42a7.9,7.9,0,0,1,4.92,10Z" transform="translate(-728.5 -306.79)"/><path d="M1235.18,490.38c-2.13-.38-4.41-.88-6.75-1.43s-4.75-1.17-7.18-1.86-4.9-1.41-7.33-2.25-4.84-1.86-7.15-2.91l-1.32-.6.5-1.07c1.25-2.73,2.49-5.46,3.54-8.26.52-1.39,1-2.81,1.44-4.23.23-.71.43-1.44.64-2.15a14.65,14.65,0,0,1,.77-2.25,9.11,9.11,0,0,1,8.26-5.26,8.93,8.93,0,0,1,2.64.4l2.15.62,4.29,1.3,4.28,1.32,2.13.68a10,10,0,0,1,2.52,1.23,9.68,9.68,0,0,1,4,9.86,10.21,10.21,0,0,1-.37,1.34c-.15.44-.3.76-.44,1.15l-.93,2.22c-.62,1.47-1.27,2.91-1.91,4.31C1237.68,485.34,1236.39,488,1235.18,490.38ZM1235,490l2-9.11c.32-1.43.63-2.81,1-4.16l.52-2c.08-.32.2-.69.26-1a4.86,4.86,0,0,0,.14-.85,6.21,6.21,0,0,0-2.7-5.7,7.14,7.14,0,0,0-1.49-.74l-2.11-.76-4.19-1.57-4.19-1.6-2.08-.82a8.11,8.11,0,0,0-1.74-.49,6.68,6.68,0,0,0-6.57,2.94,9.57,9.57,0,0,0-.9,1.9c-.27.7-.55,1.39-.8,2.1-.51,1.4-1,2.8-1.45,4.23-.88,2.85-1.57,5.77-2.25,8.7l-.82-1.67a70.16,70.16,0,0,1,6.81,1.85c2.21.74,4.4,1.6,6.62,2.5s4.46,1.87,6.77,2.91S1232.5,488.82,1235,490Z" transform="translate(-728.5 -306.79)"/><polygon class="cls-8" points="376.78 472.54 380.3 508.87 404.69 482.06 376.78 472.54"/><path d="M1105.41,779.49l1.78,9.74c.28,1.55.55,3.07.78,4.55s.49,3,.7,4.41a64.94,64.94,0,0,1,.77,8.6c.07,2.86,0,5.81.09,8.81l-1.28-.43a80.73,80.73,0,0,0,6.12-6.69c1.93-2.32,3.75-4.75,5.6-7.15s3.77-4.74,5.73-7,3.91-4.61,5.91-6.87l.89,3.46c-2.19-.71-4.34-1.5-6.48-2.36s-4.29-1.78-6.49-2.74C1115.13,783.84,1110.52,781.7,1105.41,779.49Zm-.25-.31c4.19,1,8.88,2,13.79,3.24,2.45.62,5,1.28,7.46,2s5,1.53,7.47,2.4l3.11,1.11-2.22,2.36c-2.06,2.2-4.17,4.37-6.28,6.53s-4.24,4.31-6.47,6.37-4.46,4.1-6.59,6.25a82.26,82.26,0,0,0-6.09,6.71l-1,1.29-.26-1.71c-.46-3.06-1.14-6.17-1.66-9.36a80.85,80.85,0,0,1-1-9.57c-.09-1.57-.15-3.13-.18-4.67s-.08-3-.1-4.53C1105.11,784.65,1105.1,781.78,1105.16,779.18Z" transform="translate(-728.5 -306.79)"/></svg>